<svg width="16" height="28" viewBox="0 0 16 28" fill="none" xmlns="http://www.w3.org/2000/svg">
<mask id="path-1-inside-1_633_1559" fill="white">
<path d="M11.3137 27.3137C13.5513 25.0761 15.0752 22.2251 15.6926 19.1214C16.3099 16.0177 15.9931 12.8007 14.7821 9.87707C13.5711 6.95345 11.5203 4.45459 8.88912 2.69649C6.25794 0.938384 3.1645 2.38913e-07 1.90735e-06 0V1.6C2.84805 1.6 5.63214 2.44455 8.00021 4.02684C10.3683 5.60913 12.214 7.8581 13.3039 10.4894C14.3938 13.1206 14.6789 16.016 14.1233 18.8093C13.5677 21.6026 12.1962 24.1685 10.1823 26.1823L11.3137 27.3137Z"/>
</mask>
<path d="M11.3137 27.3137C13.5513 25.0761 15.0752 22.2251 15.6926 19.1214C16.3099 16.0177 15.9931 12.8007 14.7821 9.87707C13.5711 6.95345 11.5203 4.45459 8.88912 2.69649C6.25794 0.938384 3.1645 2.38913e-07 1.90735e-06 0V1.6C2.84805 1.6 5.63214 2.44455 8.00021 4.02684C10.3683 5.60913 12.214 7.8581 13.3039 10.4894C14.3938 13.1206 14.6789 16.016 14.1233 18.8093C13.5677 21.6026 12.1962 24.1685 10.1823 26.1823L11.3137 27.3137Z" stroke="#C6A687" stroke-width="2" mask="url(#path-1-inside-1_633_1559)"/>
</svg>
