<svg width="12" height="21" viewBox="0 0 12 21" fill="none" xmlns="http://www.w3.org/2000/svg">
<mask id="path-1-inside-1_633_1361" fill="white">
<path d="M8.48528 20.4853C10.1635 18.8071 11.3064 16.6689 11.7694 14.3411C12.2324 12.0133 11.9948 9.60051 11.0866 7.4078C10.1783 5.21509 8.64023 3.34094 6.66684 2.02237C4.69345 0.703788 2.37338 1.79185e-07 9.53674e-07 0V0.842107C2.20682 0.842107 4.36409 1.49651 6.19899 2.72255C8.0339 3.9486 9.46404 5.69122 10.3085 7.73006C11.1531 9.7689 11.374 12.0124 10.9435 14.1768C10.513 16.3412 9.45028 18.3294 7.88982 19.8898L8.48528 20.4853Z"/>
</mask>
<path d="M8.48528 20.4853C10.1635 18.8071 11.3064 16.6689 11.7694 14.3411C12.2324 12.0133 11.9948 9.60051 11.0866 7.4078C10.1783 5.21509 8.64023 3.34094 6.66684 2.02237C4.69345 0.703788 2.37338 1.79185e-07 9.53674e-07 0V0.842107C2.20682 0.842107 4.36409 1.49651 6.19899 2.72255C8.0339 3.9486 9.46404 5.69122 10.3085 7.73006C11.1531 9.7689 11.374 12.0124 10.9435 14.1768C10.513 16.3412 9.45028 18.3294 7.88982 19.8898L8.48528 20.4853Z" stroke="#C6A687" stroke-width="2" mask="url(#path-1-inside-1_633_1361)"/>
</svg>
