<svg width="74" height="14" viewBox="0 0 74 14" fill="none" xmlns="http://www.w3.org/2000/svg">
<g clip-path="url(#clip0_39_1928)">
<path d="M3.75932 2.88605C3.99209 1.83714 3.30541 1.62966 2.71183 1.42218V1.19165H6.65735L11.2197 9.59449L16.0148 1.19165H19.8789V1.42218C19.1922 1.62966 18.6219 1.94087 18.8314 2.83994L20.5656 10.7126C20.9147 12.3148 21.1591 12.6029 22.0088 12.8565V13.064H17.458V12.8565C18.0167 12.7758 18.2262 12.5914 18.2262 12.0612C18.2262 11.8076 18.1796 11.4579 18.0865 11.0123L16.3524 3.23185L10.6727 13.2253H10.4399L5.07448 3.35864L3.38688 11.0238C3.30541 11.358 3.27049 11.6462 3.27049 11.8652C3.27049 12.5222 3.57309 12.7528 4.14338 12.8565V13.064H0.570312V12.8565C1.01258 12.7182 1.52469 12.5683 1.89713 10.9316L3.75932 2.88605Z" fill="#FDFCFA"/>
<path fill-rule="evenodd" clip-rule="evenodd" d="M37.3509 9.89418H29.1223L28.1447 11.4618C28.0515 11.6155 28.005 11.7576 28.005 11.8883C28.005 12.43 28.7382 12.7066 29.3085 12.868V13.0755H24.1875V12.868C24.7694 12.7182 25.7471 12.4185 26.8993 10.6665L32.3113 2.10225L32.2648 2.02156C32.0087 1.67577 31.2755 1.46829 30.9496 1.42218V1.19165H34.8602L41.2149 11.2774C41.9016 12.3839 42.7163 12.7067 43.2633 12.8565V13.064H37.0599V12.8565C37.6651 12.7067 38.4216 12.3493 38.4216 11.8076C38.4216 11.6577 38.3751 11.5194 38.2587 11.358L37.3509 9.89418ZM29.937 8.61474H36.5711L33.2773 3.26643L29.937 8.61474Z" fill="#FDFCFA"/>
<path d="M57.7646 13.064H45.6953V12.8565C46.4285 12.649 46.929 12.3609 46.929 11.554V2.89757C46.929 1.92935 46.51 1.65271 45.6953 1.42218V1.19165H50.7349V1.42218C49.9551 1.64118 49.5012 1.96393 49.5012 2.89757V11.4848C49.5012 11.9344 49.699 12.0496 50.0482 12.0496H55.7511C56.7521 12.0496 57.6832 11.4042 58.2186 10.4013H58.4513L57.7646 13.064Z" fill="#FDFCFA"/>
<path d="M72.9521 13.064H60.8828V12.8565C61.616 12.649 62.1165 12.3609 62.1165 11.554V2.89757C62.1165 1.92935 61.6975 1.65271 60.8828 1.42218V1.19165H65.934V1.42218C65.1426 1.64118 64.7003 1.96393 64.7003 2.89757V11.4848C64.7003 11.9344 64.8865 12.0496 65.2357 12.0496H70.9503C71.9396 12.0496 72.8707 11.4042 73.4177 10.4013H73.6388L72.9521 13.064Z" fill="#FDFCFA"/>
</g>
<defs>
<clipPath id="clip0_39_1928">
<rect width="74" height="13" fill="white" transform="translate(0 0.543213)"/>
</clipPath>
</defs>
</svg>
