<svg width="32" height="33" viewBox="0 0 32 33" fill="none" xmlns="http://www.w3.org/2000/svg">
<rect y="0.418213" width="32" height="32" rx="16" fill="#C6A687"/>
<g clip-path="url(#clip0_351_2651)">
<path d="M13.9592 15.3413C14.199 15.3413 14.3934 15.1468 14.3934 14.907V12.6403C14.3934 11.7483 14.7347 10.8961 15.3371 10.2702C15.939 9.64491 16.7517 9.29683 17.5955 9.29683H19.3431V11.4505H17.5955C17.282 11.4505 16.9848 11.58 16.7684 11.8049C16.5525 12.0292 16.434 12.33 16.434 12.6403V14.907C16.434 15.1468 16.6284 15.3413 16.8683 15.3413H19.2262L18.7079 17.4949H16.8683C16.6284 17.4949 16.434 17.6894 16.434 17.9292V23.5394H14.3934V17.9292C14.3934 17.6894 14.199 17.4949 13.9592 17.4949H12.2116V15.3413H13.9592Z" fill="#FDFCFA" stroke="#FDFCFA" stroke-width="0.868571" stroke-linecap="round" stroke-linejoin="round"/>
</g>
<defs>
<clipPath id="clip0_351_2651">
<rect width="16" height="16" fill="white" transform="translate(8 8.41821)"/>
</clipPath>
</defs>
</svg>
