<svg width="17" height="17" viewBox="0 0 17 17" fill="none" xmlns="http://www.w3.org/2000/svg">
<g clip-path="url(#clip0_351_2929)">
<path fill-rule="evenodd" clip-rule="evenodd" d="M10.2689 11.8356C10.552 11.8356 10.8236 11.7231 11.0238 11.5229C11.224 11.3227 11.3365 11.0511 11.3365 10.7679C11.3365 10.4848 11.2241 10.2132 11.0239 10.013L9.06975 8.05884V3.96708C9.06975 3.68388 8.95725 3.41228 8.757 3.21203C8.55675 3.01178 8.28515 2.89928 8.00196 2.89928C7.71876 2.89928 7.44716 3.01178 7.24691 3.21203C7.04666 3.41228 6.93416 3.68388 6.93416 3.96708V8.50104C6.93422 8.7842 7.04678 9.05577 7.24702 9.25597L9.51397 11.5229C9.71421 11.7231 9.98576 11.8356 10.2689 11.8356ZM3.55739 1.84922C4.87294 0.970202 6.41959 0.501013 8.00177 0.500977C10.1228 0.503527 12.1562 1.34722 13.6559 2.84699C15.1558 4.34681 15.9995 6.38028 16.002 8.50134C16.0019 10.0835 15.5327 11.63 14.6537 12.9455C13.7747 14.2611 12.5252 15.2865 11.0634 15.892C9.60161 16.4975 7.99308 16.6559 6.44123 16.3473C4.88939 16.0386 3.46392 15.2766 2.3451 14.1578C1.22628 13.039 0.464356 11.6135 0.155674 10.0617C-0.153007 8.50985 0.00541942 6.90132 0.61092 5.43951C1.21642 3.9777 2.2418 2.72827 3.55739 1.84922Z" fill="#FDFCFA"/>
</g>
<defs>
<clipPath id="clip0_351_2929">
<rect width="16.0021" height="16.0019" fill="white" transform="translate(0 0.499023)"/>
</clipPath>
</defs>
</svg>
