<svg width="16" height="17" viewBox="0 0 16 17" fill="none" xmlns="http://www.w3.org/2000/svg">
<g clip-path="url(#clip0_351_2936)">
<path d="M12.1641 11.0843C11.6414 10.5683 10.9888 10.5683 10.4694 11.0843C10.0732 11.4772 9.67699 11.8701 9.28744 12.2696C9.1809 12.3795 9.091 12.4028 8.96115 12.3295C8.70479 12.1897 8.43177 12.0765 8.18539 11.9233C7.03673 11.2008 6.07452 10.2719 5.22218 9.22649C4.79934 8.70709 4.42312 8.15107 4.16009 7.52514C4.10682 7.39862 4.11681 7.31538 4.22002 7.21217C4.61622 6.82928 5.00244 6.43641 5.39198 6.04353C5.93469 5.4975 5.93469 4.85825 5.38866 4.30889C5.07902 3.99592 4.76938 3.68961 4.45974 3.37664C4.14011 3.05702 3.82381 2.73406 3.50086 2.41776C2.97813 1.90836 2.32556 1.90836 1.80617 2.42109C1.40663 2.81397 1.02375 3.21683 0.617555 3.60305C0.241327 3.9593 0.0515486 4.39546 0.0115952 4.90486C-0.0516643 5.73389 0.151432 6.51631 0.437765 7.27876C1.02375 8.85692 1.91604 10.2586 2.99811 11.5438C4.45974 13.2818 6.20437 14.6568 8.24532 15.649C9.16425 16.0951 10.1165 16.4381 11.1519 16.4947C11.8644 16.5346 12.4837 16.3548 12.9798 15.7988C13.3194 15.4193 13.7023 15.073 14.0619 14.7101C14.5946 14.1707 14.5979 13.5181 14.0685 12.9854C13.4359 12.3495 12.8 11.7169 12.1641 11.0843ZM11.5282 8.43075L12.7567 8.22099C12.5636 7.09231 12.0309 6.07017 11.2219 5.25778C10.3662 4.40211 9.28411 3.86274 8.09217 3.69627L7.91904 4.9315C8.84129 5.06135 9.68032 5.47753 10.3429 6.14009C10.9688 6.76602 11.3783 7.55843 11.5282 8.43075ZM13.4493 3.09031C12.0309 1.67197 10.2363 0.776344 8.25531 0.5L8.08218 1.73523C9.79352 1.97495 11.345 2.75071 12.5703 3.97262C13.7323 5.13459 14.4947 6.60288 14.771 8.21766L15.9996 8.00791C15.6767 6.13676 14.7943 4.43874 13.4493 3.09031Z" fill="#FDFCFA"/>
</g>
<defs>
<clipPath id="clip0_351_2936">
<rect width="16" height="16" fill="white" transform="translate(0 0.5)"/>
</clipPath>
</defs>
</svg>
