<svg width="16" height="17" viewBox="0 0 16 17" fill="none" xmlns="http://www.w3.org/2000/svg">
<g clip-path="url(#clip0_351_2924)">
<path d="M8 0.5C6.40935 0.502117 4.88446 1.13494 3.7597 2.2597C2.63494 3.38446 2.00212 4.90935 2 6.5C2 10.8075 7.59 16.2025 7.8275 16.43C7.8737 16.4749 7.93558 16.5 8 16.5C8.06442 16.5 8.1263 16.4749 8.1725 16.43C8.41 16.2025 14 10.8075 14 6.5C13.9979 4.90935 13.3651 3.38446 12.2403 2.2597C11.1155 1.13494 9.59065 0.502117 8 0.5ZM8 9.25C7.4561 9.25 6.92442 9.08871 6.47218 8.78654C6.01995 8.48437 5.66747 8.05488 5.45933 7.55238C5.25119 7.04988 5.19673 6.49695 5.30284 5.9635C5.40895 5.43005 5.67086 4.94005 6.05546 4.55546C6.44005 4.17086 6.93005 3.90895 7.4635 3.80284C7.99695 3.69673 8.54988 3.75119 9.05238 3.95933C9.55488 4.16747 9.98437 4.51995 10.2865 4.97218C10.5887 5.42442 10.75 5.9561 10.75 6.5C10.7495 7.2292 10.4597 7.92841 9.94403 8.44403C9.42841 8.95966 8.7292 9.24954 8 9.25Z" fill="#FDFCFA"/>
</g>
<defs>
<clipPath id="clip0_351_2924">
<rect width="16" height="16" fill="white" transform="translate(0 0.5)"/>
</clipPath>
</defs>
</svg>
