<svg width="16" height="17" viewBox="0 0 16 17" fill="none" xmlns="http://www.w3.org/2000/svg">
<g clip-path="url(#clip0_351_2941)">
<path fill-rule="evenodd" clip-rule="evenodd" d="M1.05896 4.98813C1.36146 4.82158 1.70119 4.73429 2.04651 4.73438H13.9535C14.2988 4.73429 14.6385 4.8216 14.941 4.98816L8.62287 10.6782C8.26864 10.9974 7.73133 10.9974 7.3771 10.6782L1.05896 4.98813ZM15.7358 5.77475C15.9091 6.08175 16.0001 6.42834 16 6.78089V14.2227C16.0001 14.5849 15.904 14.9406 15.7217 15.2535L10.95 10.0843L15.7358 5.77475ZM14.9172 16.0281C14.6207 16.1865 14.2897 16.2693 13.9535 16.2693H2.04651C1.71034 16.2693 1.37933 16.1865 1.08281 16.0281L5.87907 10.8315L6.6307 11.508C7.40912 12.209 8.59088 12.209 9.3693 11.508L10.1209 10.8315L14.9172 16.0281ZM0.278326 15.2535C0.0959861 14.9406 -5.75727e-05 14.5849 1.43488e-07 14.2227V6.78089C-0.000131905 6.42834 0.0908795 6.08175 0.264201 5.77475L5.05008 10.0843L0.278326 15.2535Z" fill="#FDFCFA"/>
</g>
<defs>
<clipPath id="clip0_351_2941">
<rect width="16" height="16" fill="white" transform="translate(0 0.5)"/>
</clipPath>
</defs>
</svg>
