<svg xmlns="http://www.w3.org/2000/svg" width="178" height="24" viewBox="0 0 178 24" fill="none">
<path fill-rule="evenodd" clip-rule="evenodd" d="M1.84224 6.31718C1.84224 5.19047 1.34771 4.84582 0.412109 4.59397V4.32886H9.71465C14.7669 4.32886 16.8252 5.98579 16.8252 8.09342C16.8252 10.148 14.7268 11.8447 9.71465 11.8447H4.84952V16.2588C4.84952 17.3325 5.31733 17.6639 6.27966 17.929V18.1676H0.412109V17.929C1.34771 17.6639 1.84224 17.3325 1.84224 16.2588V6.31718ZM5.7584 5.50859C5.2104 5.50859 4.84952 5.54836 4.84952 6.19788V10.6385H9.71465C12.5348 10.6385 13.3501 9.3792 13.3501 8.08016C13.3501 6.79438 12.4947 5.50859 9.71465 5.50859H5.7584Z" fill="#FDFCFA"/>
<path d="M45.3618 6.31718C45.3618 5.19047 44.8806 4.84582 43.9316 4.59397V4.32886H53.4213C58.0458 4.32886 60.318 5.98579 60.318 8.09342C60.318 10.1878 58.2731 11.8447 54.2366 11.8447L59.6096 16.4709C60.7056 17.412 61.5477 17.7567 62.0689 17.929V18.1676H57.5647L49.2779 10.9831V10.6517H53.2208C55.7202 10.6517 56.883 9.57804 56.883 8.08016C56.883 6.59555 55.7202 5.54836 53.2208 5.54836H49.2245C48.7032 5.54836 48.3691 5.57487 48.3691 6.22439V16.2456C48.3691 17.3325 48.8369 17.6639 49.7992 17.929V18.1676H43.9316V17.929C44.8806 17.6639 45.3618 17.3325 45.3618 16.2456V6.31718Z" fill="#FDFCFA"/>
<path d="M75.9548 17.929V18.1676H70.0873V17.929C70.9961 17.6904 71.5575 17.3723 71.5575 16.4046V5.65441H66.9864C65.3157 5.65441 64.6741 6.52926 64.2464 7.40413H64.0059L64.3935 4.32886H81.6486L82.0362 7.40413H81.7956C81.3679 6.52926 80.7264 5.65441 79.0557 5.65441H74.4846V16.4046C74.4846 17.3723 75.086 17.6904 75.9548 17.929Z" fill="#FDFCFA"/>
<path d="M97.3399 6.59578C97.6073 5.38953 96.8187 5.15093 96.137 4.91233V4.64722H100.668L105.907 14.3105L111.414 4.64722H115.851V4.91233C115.063 5.15093 114.408 5.50882 114.649 6.54275L116.64 15.5963C117.041 17.4388 117.322 17.7702 118.297 18.0618V18.3004H113.071V18.0618C113.713 17.969 113.954 17.7569 113.954 17.1472C113.954 16.8555 113.9 16.4535 113.793 15.9409L111.802 6.99344L105.279 18.486H105.012L98.8503 7.13925L96.9122 15.9542C96.8187 16.3386 96.7786 16.67 96.7786 16.9218C96.7786 17.6774 97.1261 17.9425 97.781 18.0618V18.3004H93.6777V18.0618C94.1856 17.9027 94.7737 17.7304 95.2014 15.8481L97.3399 6.59578Z" fill="#FDFCFA"/>
<path fill-rule="evenodd" clip-rule="evenodd" d="M135.913 14.6551H126.464L125.341 16.4579C125.234 16.6346 125.181 16.7981 125.181 16.9483C125.181 17.5713 126.023 17.8895 126.678 18.075V18.3136H120.797V18.075C121.465 17.9027 122.588 17.5581 123.911 15.5432L130.126 5.6944L130.073 5.60161C129.779 5.20395 128.937 4.96535 128.562 4.91233V4.64722H133.053L140.351 16.2458C141.139 17.5183 142.075 17.8895 142.703 18.0618V18.3004H135.579V18.0618C136.274 17.8895 137.143 17.4786 137.143 16.8555C137.143 16.6832 137.09 16.5242 136.956 16.3386L135.913 14.6551ZM127.4 13.1838H135.018L131.235 7.03321L127.4 13.1838Z" fill="#FDFCFA"/>
<path d="M159.356 18.3001H145.496V18.0615C146.338 17.8229 146.913 17.4916 146.913 16.5637V6.60879C146.913 5.49532 146.432 5.17719 145.496 4.91208V4.64697H151.283V4.91208C150.388 5.16394 149.867 5.53509 149.867 6.60879V16.4841C149.867 17.0011 150.094 17.1337 150.495 17.1337H157.044C158.194 17.1337 159.263 16.3914 159.878 15.2381H160.145L159.356 18.3001Z" fill="#FDFCFA"/>
<path d="M176.8 18.3001H162.939V18.0615C163.781 17.8229 164.356 17.4916 164.356 16.5637V6.60879C164.356 5.49532 163.875 5.17719 162.939 4.91208V4.64697H168.74V4.91208C167.831 5.16394 167.323 5.53509 167.323 6.60879V16.4841C167.323 17.0011 167.537 17.1337 167.938 17.1337H174.501C175.637 17.1337 176.706 16.3914 177.334 15.2381H177.588L176.8 18.3001Z" fill="#FDFCFA"/>
<path fill-rule="evenodd" clip-rule="evenodd" d="M19.6855 11.4472C19.6855 6.90054 24.5507 4.13014 29.8301 3.99759C29.8658 3.53806 29.9059 3.05644 29.9504 2.55273H30.2712C30.3068 3.05644 30.3425 3.53806 30.3781 3.99759C35.5774 4.03735 40.5227 6.51613 40.5227 11.0628C40.5227 15.6227 35.6175 18.3533 30.3781 18.4991C30.3336 18.9498 30.2979 19.4314 30.2712 19.944H29.9504C29.9148 19.4314 29.8747 18.9498 29.8301 18.4991C24.6442 18.4593 19.6855 15.8613 19.6855 11.4472ZM30.5118 5.21709C30.7791 7.40425 31.1934 9.10095 32.0889 11.1158C31.2335 13.1571 30.7925 14.8008 30.4984 17.3061C34.2141 17.2001 37.0476 14.8804 37.0476 11.4472C37.0476 7.94772 34.5349 5.44243 30.5118 5.21709ZM23.1606 11.0628C23.1606 14.6152 25.66 17.1073 29.7098 17.3061C29.4158 14.8008 28.9747 13.1571 28.1193 11.1158C29.0148 9.10095 29.4292 7.40425 29.6965 5.20384C25.9407 5.29662 23.1606 7.64285 23.1606 11.0628Z" fill="#FDFCFA"/>
</svg>