<svg width="32" height="33" viewBox="0 0 32 33" fill="none" xmlns="http://www.w3.org/2000/svg">
<rect y="0.418213" width="32" height="32" rx="16" fill="#C6A687"/>
<path fill-rule="evenodd" clip-rule="evenodd" d="M19.738 9.75122H12.6509C10.6939 9.75122 9.10742 11.3377 9.10742 13.2947V20.3818C9.10742 22.3388 10.6939 23.9253 12.6509 23.9253H19.738C21.695 23.9253 23.2815 22.3388 23.2815 20.3818V13.2947C23.2815 11.3377 21.695 9.75122 19.738 9.75122ZM16.2185 19.529C14.7458 19.529 13.5519 18.3351 13.5519 16.8623C13.5519 15.3896 14.7458 14.1957 16.2185 14.1957C17.6913 14.1957 18.8852 15.3896 18.8852 16.8623C18.8852 18.3351 17.6913 19.529 16.2185 19.529ZM20.037 14.1957C20.7734 14.1957 21.3704 13.5987 21.3704 12.8623C21.3704 12.126 20.7734 11.529 20.037 11.529C19.3006 11.529 18.7037 12.126 18.7037 12.8623C18.7037 13.5987 19.3006 14.1957 20.037 14.1957Z" fill="#FDFCFA"/>
</svg>
