<svg width="19" height="20" viewBox="0 0 19 20" fill="none" xmlns="http://www.w3.org/2000/svg">
<ellipse cx="9.33398" cy="17.7075" rx="8.68164" ry="2" fill="#494843"/>
<path d="M9.33398 0.344238C7.6078 0.346535 5.95298 1.03327 4.73239 2.25387C3.51179 3.47446 2.82505 5.12928 2.82275 6.85546C2.82275 11.53 8.88905 17.3847 9.14679 17.6315C9.19692 17.6803 9.26407 17.7075 9.33398 17.7075C9.40389 17.7075 9.47105 17.6803 9.52118 17.6315C9.77892 17.3847 15.8452 11.53 15.8452 6.85546C15.8429 5.12928 15.1562 3.47446 13.9356 2.25387C12.715 1.03327 11.0602 0.346535 9.33398 0.344238ZM9.33398 9.83977C8.74374 9.83977 8.16676 9.66475 7.67599 9.33682C7.18522 9.0089 6.80271 8.54282 6.57684 7.99751C6.35096 7.4522 6.29186 6.85215 6.40701 6.27325C6.52216 5.69435 6.80639 5.1626 7.22375 4.74523C7.64112 4.32787 8.17287 4.04364 8.75177 3.92849C9.33067 3.81334 9.93072 3.87244 10.476 4.09832C11.0213 4.32419 11.4874 4.7067 11.8153 5.19747C12.1433 5.68823 12.3183 6.26522 12.3183 6.85546C12.3178 7.6468 12.0032 8.40557 11.4437 8.96513C10.8841 9.52469 10.1253 9.83927 9.33398 9.83977Z" fill="#C6A687"/>
</svg>
