<svg width="16" height="16" viewBox="0 0 16 16" fill="none" xmlns="http://www.w3.org/2000/svg">
<g clip-path="url(#clip0_351_2830)">
<path d="M2.28503 0C1.98253 0.00282409 1.69326 0.124391 1.47956 0.338499C1.26585 0.552607 1.14483 0.842111 1.14258 1.14461V14.8575C1.14258 15.4795 1.66089 16 2.28503 16H13.7139C14.3358 16 14.8563 15.4817 14.8563 14.8575V4.56981H10.861C10.7102 4.56817 10.5661 4.508 10.4589 4.40201C10.3517 4.29603 10.2899 4.15253 10.2865 4.00182V0H2.28503ZM11.4268 0V3.42736H14.8542C14.8539 3.35158 14.8385 3.27662 14.8088 3.20689C14.7791 3.13716 14.7358 3.07407 14.6814 3.02134L11.8717 0.205166C11.7119 0.0475122 11.6385 0 11.4268 0ZM4.57209 6.28457H11.4268C12.1913 6.28457 12.1913 7.42918 11.4268 7.42918H4.57209C3.80974 7.42918 3.80974 6.28457 4.57209 6.28457ZM4.57209 9.13962H11.4268C12.1892 9.13962 12.1892 10.2842 11.4268 10.2842H4.57209C3.80974 10.2842 3.80974 9.13962 4.57209 9.13962ZM4.57209 12.0011H11.4268C12.1892 12.0011 12.1892 13.1436 11.4268 13.1436H4.57209C3.80974 13.1436 3.80974 12.0011 4.57209 12.0011Z" fill="#C39F7B"/>
</g>
<defs>
<clipPath id="clip0_351_2830">
<rect width="16" height="16" fill="white"/>
</clipPath>
</defs>
</svg>
