<svg width="16" height="16" viewBox="0 0 16 16" fill="none" xmlns="http://www.w3.org/2000/svg">
<g clip-path="url(#clip0_351_2813)">
<path d="M0 14.2857C0 14.7404 0.180612 15.1764 0.502103 15.4979C0.823594 15.8194 1.25963 16 1.71429 16H14.2857C14.7404 16 15.1764 15.8194 15.4979 15.4979C15.8194 15.1764 16 14.7404 16 14.2857V6.28571H0V14.2857ZM11.4286 8.14286H12.5714C12.723 8.14286 12.8683 8.20306 12.9755 8.31022C13.0827 8.41739 13.1429 8.56273 13.1429 9.71429C13.1429 9.86584 13.0827 10.0112 12.9755 10.1183C12.8683 10.2255 12.723 10.2857 12.5714 10.2857H11.4286C11.277 10.2857 11.1317 10.2255 11.0245 10.1183C10.9173 10.0112 10.8571 9.86584 10.8571 9.71429C10.8571 8.56273 10.9173 8.41739 11.0245 8.31022C11.1317 8.20306 11.277 8.14286 11.4286 8.14286ZM11.4286 12H12.5714C12.723 12 12.8683 12.0602 12.9755 12.1674C13.0827 12.2745 13.1429 13.4199 13.1429 13.5714C13.1429 13.723 13.0827 13.8683 12.9755 13.9755C12.8683 14.0827 12.723 14.1429 12.5714 14.1429H11.4286C11.277 14.1429 11.1317 14.0827 11.0245 13.9755C10.9173 13.8683 10.8571 13.723 10.8571 13.5714C10.8571 13.4199 10.9173 12.2745 11.0245 12.1674C11.1317 12.0602 11.277 12 11.4286 12ZM7.42857 8.14286H8.57143C8.72298 8.14286 8.86833 8.20306 8.97549 8.31022C9.08265 8.41739 9.14286 8.56273 9.14286 9.71429C9.14286 9.86584 9.08265 10.0112 8.97549 10.1183C8.86833 10.2255 8.72298 10.2857 8.57143 10.2857H7.42857C7.27702 10.2857 7.13167 10.2255 7.02451 10.1183C6.91735 10.0112 6.85714 9.86584 6.85714 9.71429C6.85714 8.56273 6.91735 8.41739 7.02451 8.31022C7.13167 8.20306 7.27702 8.14286 7.42857 8.14286ZM7.42857 12H8.57143C8.72298 12 8.86833 12.0602 8.97549 12.1674C9.08265 12.2745 9.14286 13.4199 9.14286 13.5714C9.14286 13.723 9.08265 13.8683 8.97549 13.9755C8.86833 14.0827 8.72298 14.1429 8.57143 14.1429H7.42857C7.27702 14.1429 7.13167 14.0827 7.02451 13.9755C6.91735 13.8683 6.85714 13.723 6.85714 13.5714C6.85714 13.4199 6.91735 12.2745 7.02451 12.1674C7.13167 12.0602 7.27702 12 7.42857 12ZM3.42857 8.14286H4.57143C4.72298 8.14286 4.86833 8.20306 4.97549 8.31022C5.08265 8.41739 5.14286 8.56273 5.14286 9.71429C5.14286 9.86584 5.08265 10.0112 4.97549 10.1183C4.86833 10.2255 4.72298 10.2857 4.57143 10.2857H3.42857C3.27702 10.2857 3.13167 10.2255 3.02451 10.1183C2.91735 10.0112 2.85714 9.86584 2.85714 9.71429C2.85714 8.56273 2.91735 8.41739 3.02451 8.31022C3.13167 8.20306 3.27702 8.14286 3.42857 8.14286ZM3.42857 12H4.57143C4.72298 12 4.86833 12.0602 4.97549 12.1674C5.08265 12.2745 5.14286 13.4199 5.14286 13.5714C5.14286 13.723 5.08265 13.8683 4.97549 13.9755C4.86833 14.0827 4.72298 14.1429 4.57143 14.1429H3.42857C3.27702 14.1429 3.13167 14.0827 3.02451 13.9755C2.91735 13.8683 2.85714 13.723 2.85714 13.5714C2.85714 13.4199 2.91735 12.2745 3.02451 12.1674C3.13167 12.0602 3.27702 12 3.42857 12ZM14.2857 1.14286H12.5714V0.571429C12.5714 0.419876 12.5112 0.274531 12.4041 0.167368C12.2969 0.0602039 12.1516 0 12 0C11.8484 0 11.7031 0.0602039 11.5959 0.167368C11.4888 0.274531 11.4286 0.419876 11.4286 0.571429V1.14286H8.57143V0.571429C8.57143 0.419876 8.51123 0.274531 8.40406 0.167368C8.2969 0.0602039 8.15155 0 8 0C7.84845 0 7.7031 0.0602039 7.59594 0.167368C7.48878 0.274531 7.42857 0.419876 7.42857 0.571429V1.14286H4.57143V0.571429C4.57143 0.419876 4.51122 0.274531 4.40406 0.167368C4.2969 0.0602039 4.15155 0 4 0C3.84845 0 3.7031 0.0602039 3.59594 0.167368C3.48878 0.274531 3.42857 0.419876 3.42857 0.571429V1.14286H1.71429C1.25963 1.14286 0.823594 1.32347 0.502103 1.64496C0.180612 1.96645 0 2.40249 0 2.85714V5.14286H16V2.85714C16 2.40249 15.8194 1.96645 15.4979 1.64496C15.1764 1.32347 14.7404 1.14286 14.2857 1.14286Z" fill="#C6A687"/>
</g>
<defs>
<clipPath id="clip0_351_2813">
<rect width="16" height="16" fill="white"/>
</clipPath>
</defs>
</svg>
