<svg width="32" height="33" viewBox="0 0 32 33" fill="none" xmlns="http://www.w3.org/2000/svg">
<rect y="0.418213" width="32" height="32" rx="16" fill="#C6A687"/>
<g clip-path="url(#clip0_351_2654)">
<path d="M17.7631 14.6546C17.5736 14.464 17.3635 14.295 17.1366 14.1507C16.5357 13.7659 15.8371 13.5615 15.1236 13.5615C14.6333 13.5606 14.1476 13.6567 13.6946 13.8443C13.2416 14.0319 12.8302 14.3073 12.4841 14.6546L9.0927 18.0487C8.39482 18.7479 8.00259 19.6952 8.00195 20.6831C8.00064 22.7446 9.67072 24.4169 11.7322 24.4182C12.2218 24.4199 12.7068 24.3246 13.1594 24.1379C13.612 23.9512 14.0231 23.6768 14.3691 23.3304L17.1686 20.5309C17.2062 20.4936 17.2318 20.4459 17.2422 20.394C17.2526 20.3421 17.2473 20.2882 17.227 20.2393C17.2067 20.1904 17.1723 20.1487 17.1282 20.1194C17.0841 20.0901 17.0322 20.0747 16.9793 20.075H16.8726C16.2877 20.077 15.7081 19.9647 15.1663 19.7444C15.1175 19.7243 15.0638 19.7191 15.0121 19.7296C14.9604 19.74 14.9129 19.7656 14.8757 19.803L12.8627 21.8186C12.2376 22.4437 11.2242 22.4437 10.5991 21.8186C9.97404 21.1936 9.97404 20.1801 10.5991 19.555L14.0038 16.153C14.6284 15.5292 15.6402 15.5292 16.2648 16.153C16.6857 16.5492 17.3423 16.5492 17.7632 16.153C17.9443 15.9717 18.0541 15.7313 18.0725 15.4758C18.0821 15.3248 18.0595 15.1735 18.0062 15.0319C17.9528 14.8903 17.87 14.7617 17.7631 14.6546Z" fill="#FDFCFA"/>
<path d="M22.9065 9.51154C21.4487 8.05377 19.0852 8.05377 17.6274 9.51154L14.8306 12.3057C14.7931 12.3434 14.7677 12.3915 14.7577 12.4438C14.7477 12.496 14.7536 12.5501 14.7746 12.599C14.7954 12.648 14.8303 12.6897 14.875 12.7187C14.9197 12.7477 14.972 12.7626 15.0252 12.7616H15.1239C15.7081 12.7605 16.2868 12.8738 16.8276 13.0949C16.8764 13.115 16.93 13.1201 16.9818 13.1097C17.0335 13.0992 17.081 13.0737 17.1182 13.0363L19.1258 11.0313C19.7509 10.4062 20.7643 10.4062 21.3894 11.0313C22.0145 11.6563 22.0145 12.6698 21.3894 13.2949L18.8885 15.7931L18.8672 15.8171L17.9927 16.6863C17.3681 17.31 16.3563 17.31 15.7317 16.6863C15.3108 16.2901 14.6542 16.2901 14.2333 16.6863C14.0511 16.8689 13.9412 17.1114 13.924 17.3688C13.9144 17.5198 13.937 17.6711 13.9903 17.8127C14.0436 17.9542 14.1265 18.0829 14.2333 18.19C14.5419 18.4999 14.903 18.7526 15.2998 18.9365C15.3558 18.9632 15.4118 18.9845 15.4678 19.0085C15.5238 19.0325 15.5824 19.0511 15.6384 19.0725C15.6944 19.0935 15.7514 19.1122 15.809 19.1285L15.9663 19.1711C16.073 19.1978 16.1796 19.2191 16.2889 19.2378C16.4206 19.2573 16.5532 19.2698 16.6862 19.2751H16.8888L17.0488 19.2564C17.1074 19.2538 17.1688 19.2404 17.2381 19.2404H17.3287L17.5127 19.2138L17.598 19.1978L17.7527 19.1658H17.782C18.4369 19.0013 19.0349 18.6622 19.5123 18.1846L22.9064 14.7906C24.3643 13.3328 24.3643 10.9693 22.9065 9.51154Z" fill="#FDFCFA"/>
</g>
<defs>
<clipPath id="clip0_351_2654">
<rect width="16" height="16" fill="white" transform="translate(8 8.41821)"/>
</clipPath>
</defs>
</svg>
